<?xml version="1.0" standalone="no"?>
<!DOCTYPE svg PUBLIC "-//W3C//DTD SVG 20010904//EN"
 "http://www.w3.org/TR/2001/REC-SVG-20010904/DTD/svg10.dtd">
<svg version="1.0" xmlns="http://www.w3.org/2000/svg"
 width="180.000000pt" height="180.000000pt" viewBox="0 0 180.000000 180.000000"
 preserveAspectRatio="xMidYMid meet">

<g transform="translate(0.000000,180.000000) scale(0.100000,-0.100000)"
fill="#ffffff" stroke="none">
<path d="M143 1649 c-95 -19 -109 -97 -78 -425 20 -207 32 -248 95 -317 74
-81 184 -124 330 -128 26 -1 34 -4 20 -6 -56 -9 -174 -45 -209 -62 -159 -82
-143 -229 47 -432 112 -120 216 -163 305 -125 76 32 155 157 213 339 15 48 31
87 34 87 4 0 19 -45 35 -101 46 -166 110 -280 176 -314 96 -50 266 24 387 167
123 147 126 276 7 358 -51 35 -76 45 -170 70 l-70 19 50 1 c72 1 175 25 232
54 68 34 136 111 156 178 19 62 47 334 47 455 0 139 -33 185 -132 185 -102 -1
-282 -119 -430 -283 -89 -97 -203 -249 -249 -329 -19 -33 -36 -59 -39 -59 -3
0 -20 26 -39 59 -18 32 -66 102 -105 154 -226 301 -473 485 -613 455z"/>
</g>
</svg>
